<?xml version="1.0" encoding="UTF-8"?>
<svg width="574px" height="102px" viewBox="0 0 574 102" version="1.1" xmlns="http://www.w3.org/2000/svg" xmlns:xlink="http://www.w3.org/1999/xlink">
    <!-- Generator: Sketch 59 (86127) - https://sketch.com -->
    <title>Group</title>
    <desc>Created with Sketch.</desc>
    <defs>
        <polygon id="path-1" points="0.063 0.576 290.978 0.576 290.978 30.94 0.063 30.94"></polygon>
        <polygon id="path-3" points="0.06 0.834 318.431 0.834 318.431 62.331 0.06 62.331"></polygon>
    </defs>
    <g id="Page-1" stroke="none" stroke-width="1" fill="none" fill-rule="evenodd">
        <g id="HNC+PHN-NC_LOCK-UP_4C">
            <g id="Group">
                <g id="Group-8" transform="translate(1.000000, 71.000000)">
                    <mask id="mask-2" fill="white">
                        <use xlink:href="#path-1"></use>
                    </mask>
                    <g id="Clip-2"></g>
                    <path d="M26.906,1.083 L20.894,1.083 C20.097,1.083 19.45,1.729 19.45,2.527 L19.45,13.006 C19.45,13.638 18.641,13.904 18.266,13.393 L9.623,1.622 C9.375,1.283 8.979,1.083 8.559,1.083 L1.507,1.083 C0.71,1.083 0.063,1.729 0.063,2.527 L0.063,29.027 C0.063,29.824 0.71,30.47 1.507,30.47 L7.519,30.47 C8.317,30.47 8.963,29.824 8.963,29.027 L8.963,17.645 C8.963,16.994 9.796,16.723 10.18,17.25 L19.37,29.877 C19.641,30.25 20.076,30.47 20.537,30.47 L26.906,30.47 C27.703,30.47 28.35,29.824 28.35,29.027 L28.35,2.527 C28.35,1.729 27.703,1.083 26.906,1.083" id="Fill-1" fill="#B9D137" mask="url(#mask-2)"></path>
                    <path d="M48.371,23.157 C44.097,23.157 41.322,19.896 41.322,15.798 C41.322,11.701 44.097,8.441 48.371,8.441 C52.644,8.441 55.421,11.701 55.421,15.798 C55.421,19.896 52.644,23.157 48.371,23.157 Z M48.371,0.598 C39.295,0.598 32.289,6.766 32.289,15.798 C32.289,24.831 39.295,31 48.371,31 C57.447,31 64.453,24.831 64.453,15.798 C64.453,6.766 57.447,0.598 48.371,0.598 L48.371,0.598 Z" id="Fill-3" fill="#B9D137" mask="url(#mask-2)"></path>
                    <path d="M82.711,13.463 L78.039,13.463 C77.627,13.463 77.292,13.129 77.292,12.715 L77.292,9.585 C77.292,9.172 77.627,8.838 78.039,8.838 L82.711,8.838 C84.209,8.838 85.619,9.543 85.619,11.129 C85.619,12.758 84.209,13.463 82.711,13.463 Z M89.972,19.746 C92.18,18.453 94.652,15.808 94.652,11.172 C94.652,5.665 90.951,1.083 84.077,1.083 L69.836,1.083 C69.038,1.083 68.392,1.729 68.392,2.527 L68.392,29.027 C68.392,29.824 69.038,30.47 69.836,30.47 L75.848,30.47 C76.645,30.47 77.292,29.824 77.292,29.027 L77.292,21.965 C77.292,21.553 77.627,21.218 78.039,21.218 L80.019,21.218 C80.316,21.218 80.585,21.394 80.704,21.666 L84.183,29.606 C84.413,30.132 84.932,30.47 85.505,30.47 L92.332,30.47 C93.412,30.47 94.11,29.329 93.618,28.368 L89.697,20.722 C89.518,20.374 89.634,19.944 89.972,19.746 L89.972,19.746 Z" id="Fill-4" fill="#B9D137" mask="url(#mask-2)"></path>
                    <path d="M183.985,8.419 C186.136,8.419 188.054,9.731 189.097,11.456 C189.496,12.114 190.303,12.397 191.001,12.072 L195.97,9.758 C196.748,9.396 197.049,8.45 196.632,7.7 C194.619,4.087 190.799,0.576 183.985,0.576 C174.776,0.576 167.814,6.7 167.814,15.777 C167.814,24.809 174.776,30.977 183.985,30.977 C190.773,30.977 194.624,27.357 196.621,23.814 C197.045,23.063 196.738,22.111 195.954,21.751 L190.998,19.472 C190.301,19.151 189.497,19.434 189.101,20.091 C188.058,21.819 186.139,23.134 183.985,23.134 C179.711,23.134 176.847,19.875 176.847,15.777 C176.847,11.679 179.711,8.419 183.985,8.419" id="Fill-5" fill="#B9D137" mask="url(#mask-2)"></path>
                    <path d="M215.306,23.134 C211.033,23.134 208.257,19.875 208.257,15.777 C208.257,11.679 211.033,8.419 215.306,8.419 C219.58,8.419 222.356,11.679 222.356,15.777 C222.356,19.875 219.58,23.134 215.306,23.134 Z M215.306,0.576 C206.23,0.576 199.224,6.744 199.224,15.777 C199.224,24.809 206.23,30.977 215.306,30.977 C224.383,30.977 231.388,24.809 231.388,15.777 C231.388,6.744 224.383,0.576 215.306,0.576 L215.306,0.576 Z" id="Fill-6" fill="#B9D137" mask="url(#mask-2)"></path>
                    <path d="M274.632,9.432 C274.632,8.682 275.117,8.11 276.879,8.11 C279.258,8.11 282.026,8.823 284.378,10.247 C285.042,10.649 285.898,10.511 286.366,9.891 L289.356,5.931 C289.871,5.251 289.728,4.264 289.021,3.789 C285.877,1.676 282.028,0.62 277.805,0.62 C269.742,0.62 265.6,5.379 265.6,10.357 C265.6,21.945 281.99,19.081 281.99,21.901 C281.99,23.047 280.404,23.487 278.729,23.487 C275.421,23.487 272.572,22.321 270.44,20.707 C269.763,20.194 268.797,20.355 268.31,21.05 L265.427,25.17 C264.956,25.841 265.117,26.755 265.77,27.251 C268.78,29.532 272.761,30.977 278.289,30.977 C286.176,30.977 290.978,27.232 290.978,20.755 C290.978,9.829 274.632,12.208 274.632,9.432" id="Fill-7" fill="#B9D137" mask="url(#mask-2)"></path>
                </g>
                <path d="M99.831,79.838 L105.395,79.838 C105.881,79.838 106.274,80.23 106.274,80.715 L106.274,100.027 C106.274,100.824 106.92,101.47 107.718,101.47 L113.73,101.47 C114.528,101.47 115.174,100.824 115.174,100.027 L115.174,80.715 C115.174,80.23 115.567,79.838 116.053,79.838 L121.573,79.838 C122.37,79.838 123.017,79.191 123.017,78.393 L123.017,73.527 C123.017,72.729 122.37,72.083 121.573,72.083 L99.831,72.083 C99.034,72.083 98.387,72.729 98.387,73.527 L98.387,78.393 C98.387,79.191 99.034,79.838 99.831,79.838" id="Fill-9" fill="#B9D137"></path>
                <path d="M152.54,72.083 L147.138,72.083 C146.172,72.083 145.389,72.866 145.389,73.832 L145.389,81.602 C145.389,82.088 144.995,82.481 144.51,82.481 L135.737,82.481 C135.252,82.481 134.858,82.088 134.858,81.602 L134.858,73.832 C134.858,72.866 134.076,72.083 133.109,72.083 L127.707,72.083 C126.742,72.083 125.958,72.866 125.958,73.832 L125.958,99.721 C125.958,100.688 126.742,101.47 127.707,101.47 L133.109,101.47 C134.076,101.47 134.858,100.688 134.858,99.721 L134.858,91.114 C134.858,90.629 135.252,90.236 135.737,90.236 L144.51,90.236 C144.995,90.236 145.389,90.629 145.389,91.114 L145.389,99.721 C145.389,100.688 146.172,101.47 147.138,101.47 L152.54,101.47 C153.506,101.47 154.288,100.688 154.288,99.722 L154.288,73.832 C154.288,72.866 153.506,72.083 152.54,72.083" id="Fill-10" fill="#B9D137"></path>
                <path d="M250.274,90.257 L246.259,90.257 C245.812,90.257 245.492,89.824 245.623,89.396 L247.631,82.857 C247.823,82.23 248.711,82.23 248.903,82.857 L250.911,89.396 C251.042,89.824 250.722,90.257 250.274,90.257 Z M254.211,73.005 C254.002,72.437 253.46,72.06 252.855,72.06 L243.679,72.06 C243.074,72.06 242.533,72.437 242.323,73.005 L232.551,99.503 C232.203,100.447 232.901,101.448 233.907,101.448 L240.855,101.448 C241.489,101.448 242.05,101.035 242.236,100.428 L242.789,98.631 C242.902,98.263 243.243,98.011 243.628,98.011 L252.906,98.011 C253.291,98.011 253.632,98.263 253.745,98.631 L254.298,100.428 C254.485,101.035 255.045,101.448 255.68,101.448 L262.628,101.448 C263.634,101.448 264.332,100.447 263.984,99.503 L254.211,73.005 L254.211,73.005 Z" id="Fill-11" fill="#B9D137"></path>
                <path d="M316.256,72.06 L294.514,72.06 C293.717,72.06 293.07,72.707 293.07,73.505 L293.07,78.371 C293.07,79.169 293.717,79.815 294.514,79.815 L300.078,79.815 C300.563,79.815 300.957,80.208 300.957,80.693 L300.957,100.005 C300.957,100.801 301.603,101.448 302.4,101.448 L308.413,101.448 C309.21,101.448 309.857,100.801 309.857,100.005 L309.857,80.693 C309.857,80.208 310.25,79.815 310.735,79.815 L316.256,79.815 C317.053,79.815 317.699,79.169 317.699,78.371 L317.699,73.505 C317.699,72.707 317.053,72.06 316.256,72.06" id="Fill-12" fill="#B9D137"></path>
                <path d="M212.017,1.979 L186.087,1.979 C178.69,2.064 171.556,2.237 171.556,11.007 C171.556,18.212 178.604,18.734 183.561,19.08 L187.105,19.324 C187.953,19.383 188.611,20.086 188.611,20.935 L188.611,37.136 C188.526,39.917 188.526,43.302 188.526,46.861 L188.526,49.379 C188.526,51.463 188.611,54.239 189.046,55.804 C189.915,59.709 193.309,61.186 197.225,61.186 C200.533,61.186 204.537,60.577 205.578,56.411 C206.362,53.198 206.536,48.077 206.536,43.649 L206.536,33.317 C206.536,31.757 206.45,30.367 206.45,28.89 L206.45,20.743 C206.45,19.902 207.097,19.203 207.937,19.134 L209.667,18.994 C212.367,18.734 216.542,18.212 218.89,17.084 C222.457,15.348 223.678,12.916 223.678,9.184 C223.59,2.932 217.414,1.979 212.017,1.979" id="Fill-13" fill="#008073"></path>
                <path d="M262.825,1.544 C255.428,1.544 254.301,5.19 253.429,10.745 C252.906,14.306 253.08,18.559 253.08,22.379 C253.08,23.463 253.073,24.26 253.062,24.846 C253.047,25.739 252.314,26.449 251.419,26.439 C249.663,26.417 246.719,26.385 244.061,26.375 C243.173,26.371 242.454,25.661 242.441,24.775 C242.406,22.367 242.336,17.763 242.278,14.695 C242.211,11.137 241.595,5.709 239.594,3.801 C237.94,2.324 236.462,1.89 234.198,1.89 C226.018,1.89 225.669,6.665 225.669,13.784 L225.669,14.74 C225.669,20.817 225.757,46.514 227.675,55.888 C228.63,60.666 231.327,61.533 235.417,61.533 C239.856,61.533 241.161,59.796 241.856,57.712 C243.108,53.967 242.822,47.688 242.862,42.759 C242.87,41.868 243.599,41.154 244.492,41.154 L251.451,41.153 C252.35,41.153 253.08,41.881 253.08,42.778 L253.08,46.253 C253.08,50.246 253.344,55.715 255.257,58.667 C256.563,60.839 258.735,61.185 261.52,61.185 L262.131,61.185 C264.044,61.099 266.221,60.229 267.437,58.494 C269.614,55.457 269.959,44.778 269.959,36.791 L269.959,19.254 C269.959,15.001 269.787,10.486 269.091,7.186 C268.309,3.192 266.477,1.544 262.825,1.544" id="Fill-14" fill="#008073"></path>
                <g id="Group-21">
                    <mask id="mask-4" fill="white">
                        <use xlink:href="#path-3"></use>
                    </mask>
                    <g id="Clip-16"></g>
                    <path d="M309.023,1.799 L307.527,1.799 C304.714,1.976 303.747,3.903 303.132,5.221 C300.407,15.397 300.849,23.817 295.043,23.817 C287.745,23.817 290.076,8.002 286.711,2.63 C285.818,1.203 283.174,0.834 281.328,0.834 C277.195,0.834 273.325,2.325 272.446,6.274 C272.27,7.063 272.18,8.115 272.18,9.343 C272.18,16.274 273.149,23.116 275.874,28.468 C279.302,35.223 286.161,39.082 294.25,39.082 C295.762,39.082 297.223,38.934 298.486,38.495 L298.486,38.496 C299.438,38.093 299.561,39.084 299.349,39.785 C298.21,43.556 295.394,46.012 286.075,46.977 C282.115,47.418 278.774,49.697 278.774,53.206 L278.774,53.822 C278.774,59.61 283.435,62.331 288.714,62.331 C296.715,62.331 303.571,60.049 308.23,54.611 C316.143,45.486 317.464,30.66 317.991,24.96 C317.991,24.607 318.077,24.344 318.077,24.081 C318.255,21.976 318.431,19.781 318.431,17.676 C318.431,9.168 315.97,1.799 309.023,1.799" id="Fill-15" fill="#008073" mask="url(#mask-4)"></path>
                    <path d="M122.963,43.534 C121.953,45.202 119.899,47.091 117.461,47.61 C115.807,47.962 114.314,47.371 113.795,44.938 C112.871,40.612 118.506,35.562 122.72,33.842 C123.411,33.56 124.195,33.958 124.35,34.687 C124.351,34.692 124.352,34.696 124.353,34.7 C125.003,37.741 124.607,41.004 122.963,43.534 Z M110.33,1.441 C103.501,2.712 95.114,6.493 92.824,13.247 C92.369,14.525 92.162,16.113 92.477,17.59 C92.682,18.546 93.128,19.359 93.749,20.135 C95.365,22.154 97.874,22.648 99.536,22.084 C103.937,20.59 106.35,18.182 110.356,17.331 C112.185,16.942 114.598,17.155 116.338,18.057 C117.463,18.635 118.382,19.53 118.642,20.746 C118.809,21.528 118.434,22.335 117.582,22.607 C109.738,25.091 102.437,30.549 99.551,37.067 C98.142,40.273 98.006,44.753 98.785,48.401 C101.013,58.828 111.149,63.666 122.035,61.351 C130.307,59.592 136.881,53.29 139.44,45.662 C141.443,39.695 141.563,32.585 140.115,25.808 C136.96,11.039 125.924,-1.42 110.33,1.441 L110.33,1.441 Z" id="Fill-17" fill="#008073" mask="url(#mask-4)"></path>
                    <path d="M181.241,43.086 C176.258,41.771 170.161,43.01 164.774,42.558 C164.021,42.495 163.402,41.953 163.265,41.212 C163.08,40.214 162.915,38.753 162.802,36.964 C162.271,28.595 162.129,13.901 162.018,10.757 C161.974,10.06 161.842,9.368 161.797,8.671 C160.831,1.73 156.867,1.455 151.886,1.77 C149.964,1.891 145.29,2.886 144.693,7.3 C144.186,15.908 143.931,24.327 144.483,33.044 C144.837,38.623 145.54,44.18 146.685,49.796 C148.697,59.384 155.776,61.738 166.103,61.348 C166.802,61.304 169.416,61.337 171.251,61.221 C180.25,60.653 186.355,60.092 185.648,48.934 C185.432,45.535 184.098,43.869 181.241,43.086" id="Fill-18" fill="#008073" mask="url(#mask-4)"></path>
                    <path d="M37.156,1.544 C29.759,1.544 28.632,5.19 27.76,10.745 C27.237,14.306 27.411,18.559 27.411,22.379 C27.411,23.463 27.404,24.26 27.393,24.846 C27.378,25.739 26.645,26.449 25.75,26.439 C23.995,26.417 21.05,26.385 18.392,26.375 C17.504,26.371 16.785,25.661 16.772,24.775 C16.737,22.367 16.667,17.763 16.609,14.695 C16.542,11.137 15.926,5.709 13.925,3.801 C12.271,2.324 10.793,1.89 8.529,1.89 C0.349,1.89 0,6.665 0,13.784 L0,14.74 C0,20.817 0.088,46.514 2.006,55.888 C2.961,60.666 5.658,61.533 9.747,61.533 C14.186,61.533 15.491,59.796 16.187,57.712 C17.439,53.967 17.152,47.688 17.193,42.759 C17.2,41.868 17.929,41.154 18.823,41.154 L25.781,41.153 C26.681,41.153 27.411,41.881 27.411,42.778 L27.411,46.253 C27.411,50.246 27.674,55.715 29.587,58.667 C30.894,60.839 33.066,61.185 35.851,61.185 L36.462,61.185 C38.375,61.099 40.552,60.229 41.768,58.494 C43.945,55.457 44.289,44.778 44.289,36.791 L44.289,19.254 C44.289,15.001 44.118,10.486 43.422,7.186 C42.641,3.192 40.809,1.544 37.156,1.544" id="Fill-19" fill="#008073" mask="url(#mask-4)"></path>
                    <path d="M65.881,19.416 C66.891,17.748 68.945,15.858 71.383,15.339 C73.037,14.988 74.53,15.579 75.049,18.011 C75.973,22.337 70.338,27.387 66.124,29.108 C65.432,29.39 64.649,28.991 64.493,28.262 C64.493,28.258 64.492,28.254 64.491,28.249 C63.841,25.208 64.236,21.945 65.881,19.416 Z M78.513,61.508 C85.343,60.238 93.73,56.456 96.019,49.702 C96.475,48.424 96.682,46.837 96.366,45.36 C96.162,44.404 95.716,43.59 95.095,42.814 C93.479,40.795 90.969,40.302 89.308,40.866 C84.907,42.359 82.493,44.767 78.487,45.619 C76.659,46.007 74.246,45.794 72.506,44.892 C71.381,44.314 70.462,43.42 70.202,42.203 C70.035,41.421 70.409,40.615 71.262,40.343 C79.106,37.858 86.407,32.4 89.293,25.882 C90.702,22.676 90.838,18.197 90.059,14.548 C87.831,4.122 77.695,-0.717 66.809,1.598 C58.536,3.357 51.962,9.659 49.404,17.287 C47.401,23.254 47.281,30.364 48.728,37.141 C51.883,51.911 62.92,64.37 78.513,61.508 L78.513,61.508 Z" id="Fill-20" fill="#008073" mask="url(#mask-4)"></path>
                </g>
                <path d="M429.362,45.139 C426.292,45.139 423.65,43.571 421.864,41.143 L421.864,31.007 C423.579,28.578 426.292,27.152 429.362,27.152 C434.217,27.152 438.213,31.007 438.213,36.144 C438.213,41.285 434.217,45.139 429.362,45.139 M432.218,17.442 C426.864,17.442 421.936,18.941 418.937,22.652 L418.794,22.652 C417.296,19.584 413.371,18.3 409.873,18.3 C407.946,18.3 406.73,18.799 406.73,18.799 L407.159,28.08 C407.159,28.08 407.445,28.007 407.872,28.007 C409.444,28.007 411.01,29.366 411.01,33.006 L411.01,68.645 C411.01,71.644 413.432,74.075 416.43,74.075 C419.421,74.075 421.847,71.654 421.856,68.666 L421.864,68.666 L421.864,50.497 L422.008,50.497 C424.078,52.496 426.506,53.853 429.362,54.422 C430.503,54.709 431.79,54.853 433.074,54.781 C441.999,54.352 449.138,46.498 449.138,36.144 C449.138,25.44 441.499,17.442 432.218,17.442" id="Fill-22" fill="#1D3756"></path>
                <path d="M476.747,17.584 C475.318,17.514 473.817,17.584 472.391,17.871 C469.536,18.442 466.966,20.012 465.038,22.296 L464.893,22.296 L464.893,1.879 L454.044,1.879 L454.044,53.993 L464.893,53.993 L464.893,31.076 C466.68,28.436 468.82,27.152 472.032,27.152 C476.46,27.152 478.745,30.575 478.745,35.791 L478.745,53.993 L489.598,53.993 L489.598,36.858 C489.598,34.718 489.455,32.719 489.169,30.862 C488.099,23.081 483.956,18.013 476.747,17.584" id="Fill-23" fill="#1D3756"></path>
                <path d="M516.667,17.442 C512.169,17.442 507.672,19.442 505.745,23.652 L505.602,23.652 L505.389,18.3 L495.321,18.3 L495.321,53.993 L506.174,53.993 L506.174,31.076 C507.959,28.436 510.1,27.152 513.31,27.152 C517.738,27.152 520.024,30.575 520.024,35.788 L520.024,53.993 L530.874,53.993 L530.874,35.788 C530.874,24.794 526.093,17.442 516.667,17.442" id="Fill-24" fill="#1D3756"></path>
                <path d="M410.946,101.565 L412.11,101.565 L412.78,99.091 L415.662,99.091 L416.306,101.565 L417.468,101.565 L415.042,92.545 L413.552,92.545 L410.946,101.565 Z M414.245,93.818 L414.269,93.818 L415.42,98.178 L412.994,98.178 L414.245,93.818 Z M418.289,101.565 L419.351,101.565 L419.351,96.891 C419.351,95.905 420.121,95.526 420.69,95.526 C421.651,95.526 421.688,96.374 421.688,96.891 L421.688,101.565 L422.751,101.565 L422.751,96.766 C422.751,95.968 422.751,94.616 420.968,94.616 C420.312,94.616 419.603,94.969 419.325,95.588 L419.301,95.588 L419.301,94.792 L418.289,94.792 L418.289,101.565 Z M426.374,101.565 L427.538,101.565 L428.207,99.091 L431.09,99.091 L431.732,101.565 L432.896,101.565 L430.47,92.545 L428.977,92.545 L426.374,101.565 Z M429.686,93.818 L429.711,93.818 L430.862,98.178 L428.434,98.178 L429.686,93.818 Z M438.041,94.792 L436.979,94.792 L436.979,99.467 C436.979,100.454 436.208,100.836 435.639,100.836 C434.679,100.836 434.641,99.988 434.641,99.467 L434.641,94.792 L433.579,94.792 L433.579,99.593 C433.579,100.391 433.579,101.743 435.362,101.743 C436.018,101.743 436.725,101.39 437.004,100.77 L437.03,100.77 L437.03,101.565 L438.041,101.565 L438.041,94.792 Z M443.354,96.776 C443.342,95.979 443.265,94.616 441.294,94.616 C440.118,94.616 439.132,95.223 439.132,96.486 C439.132,97.89 439.979,98.129 440.801,98.409 C441.622,98.685 442.456,98.877 442.456,99.784 C442.456,100.744 441.673,100.909 441.332,100.909 C440.296,100.909 440.067,100.164 440.067,99.342 L439.007,99.342 C439.007,100.038 439.031,101.743 441.332,101.743 C442.595,101.743 443.516,101.048 443.516,99.62 C443.516,98.28 442.682,97.99 441.861,97.713 C441.028,97.435 440.194,97.284 440.194,96.486 C440.194,95.54 440.952,95.451 441.294,95.451 C442.064,95.451 442.291,95.919 442.291,96.776 L443.354,96.776 Z M444.928,94.792 L443.943,94.792 L443.943,95.626 L444.928,95.626 L444.928,100.302 C444.928,101.189 445.194,101.641 446.295,101.641 C446.735,101.641 447.014,101.591 447.152,101.565 L447.152,100.694 C447.038,100.708 446.913,100.731 446.684,100.731 C446.13,100.731 445.991,100.519 445.991,99.975 L445.991,95.626 L447.165,95.626 L447.165,94.792 L445.991,94.792 L445.991,92.822 L444.928,92.822 L444.928,94.792 Z M447.92,101.565 L448.981,101.565 L448.981,97.284 C448.981,96.157 449.841,95.678 450.373,95.678 C450.715,95.678 450.84,95.715 450.94,95.727 L450.94,94.692 C450.84,94.639 450.688,94.616 450.474,94.616 C449.714,94.616 449.31,95.158 449.008,95.803 L448.981,95.803 L448.981,94.792 L447.92,94.792 L447.92,101.565 Z M452.631,96.84 L452.631,96.776 C452.631,96.539 452.631,95.451 453.793,95.451 C454.5,95.451 454.88,95.814 454.88,96.447 C454.88,97.017 454.88,97.234 454.109,97.472 L452.682,97.904 C451.809,98.168 451.405,98.824 451.405,99.771 C451.405,100.987 451.985,101.743 453.25,101.743 C453.881,101.743 454.54,101.377 454.88,100.77 L454.906,100.77 C454.957,101.641 455.462,101.641 455.865,101.641 C456.131,101.641 456.41,101.591 456.487,101.579 L456.487,100.823 C456.434,100.859 456.372,100.885 456.233,100.885 C455.903,100.885 455.903,100.619 455.903,100.341 L455.903,96.562 C455.903,95.856 455.903,94.616 453.844,94.616 C452.224,94.616 451.568,95.297 451.568,96.84 L452.631,96.84 Z M454.842,99.62 C454.842,100.318 454.172,100.909 453.476,100.909 C452.757,100.909 452.516,100.427 452.516,99.745 C452.516,99.154 452.693,98.889 453.036,98.672 C453.516,98.382 454.451,98.294 454.842,97.878 L454.842,99.62 Z M457.354,101.565 L458.416,101.565 L458.416,92.545 L457.354,92.545 L457.354,101.565 Z M459.754,101.565 L460.815,101.565 L460.815,94.792 L459.754,94.792 L459.754,101.565 Z M459.754,93.756 L460.815,93.756 L460.815,92.542 L459.754,92.542 L459.754,93.756 Z M463.068,96.84 L463.068,96.776 C463.068,96.539 463.068,95.451 464.231,95.451 C464.937,95.451 465.316,95.814 465.316,96.447 C465.316,97.017 465.316,97.234 464.545,97.472 L463.118,97.904 C462.247,98.168 461.844,98.824 461.844,99.771 C461.844,100.987 462.426,101.743 463.687,101.743 C464.317,101.743 464.976,101.377 465.316,100.77 L465.343,100.77 C465.392,101.641 465.897,101.641 466.303,101.641 C466.566,101.641 466.847,101.591 466.923,101.579 L466.923,100.823 C466.873,100.859 466.81,100.885 466.669,100.885 C466.342,100.885 466.342,100.619 466.342,100.341 L466.342,96.562 C466.342,95.856 466.342,94.616 464.281,94.616 C462.665,94.616 462.006,95.297 462.006,96.84 L463.068,96.84 Z M465.28,99.62 C465.28,100.318 464.61,100.909 463.915,100.909 C463.195,100.909 462.956,100.427 462.956,99.745 C462.956,99.154 463.132,98.889 463.474,98.672 C463.951,98.382 464.885,98.294 465.28,97.878 L465.28,99.62 Z M467.779,101.565 L468.84,101.565 L468.84,96.891 C468.84,95.905 469.611,95.526 470.181,95.526 C471.141,95.526 471.178,96.374 471.178,96.891 L471.178,101.565 L472.241,101.565 L472.241,96.766 C472.241,95.968 472.241,94.616 470.457,94.616 C469.801,94.616 469.094,94.969 468.814,95.588 L468.79,95.588 L468.79,94.792 L467.779,94.792 L467.779,101.565 Z M482.145,95.045 C482.133,94.577 482.068,92.367 479.478,92.367 C476.989,92.367 476.572,94.778 476.572,97.056 C476.572,99.481 476.989,101.743 479.341,101.743 C480.325,101.743 481.046,101.11 481.287,100.341 L481.311,100.341 L481.311,101.565 L482.145,101.565 L482.145,96.879 L479.351,96.879 L479.351,97.789 L481.134,97.789 C481.134,98.989 481.019,100.836 479.478,100.836 C477.937,100.836 477.735,99.141 477.735,97.056 C477.735,94.969 477.937,93.274 479.478,93.274 C480.578,93.274 480.932,94.098 480.982,95.045 L482.145,95.045 Z M483.239,98.178 C483.239,100.088 483.719,101.743 485.678,101.743 C487.625,101.743 488.12,100.088 488.12,98.178 C488.12,96.272 487.639,94.616 485.678,94.616 C483.732,94.616 483.239,96.272 483.239,98.178 L483.239,98.178 Z M485.653,100.909 C484.566,100.909 484.352,99.645 484.352,98.178 C484.352,96.716 484.58,95.451 485.653,95.451 C486.791,95.451 487.007,96.716 487.007,98.178 C487.007,99.645 486.778,100.909 485.653,100.909 L485.653,100.909 Z M490.323,101.565 L491.537,101.565 L493.368,94.792 L492.205,94.792 L490.941,100.226 L490.917,100.226 L489.653,94.792 L488.489,94.792 L490.323,101.565 Z M494.932,97.472 L494.932,97.218 C494.932,96.816 495.06,95.451 496.172,95.451 C497.108,95.451 497.349,96.347 497.349,97.106 L497.349,97.472 L494.932,97.472 Z M498.461,98.306 L498.461,97.878 C498.461,96.424 498.272,94.616 496.198,94.616 C494.111,94.616 493.784,96.575 493.784,98.27 C493.784,100.592 494.479,101.743 496.136,101.743 C497.979,101.743 498.411,100.061 498.411,99.342 L497.349,99.342 C497.349,99.849 497.208,100.909 496.198,100.909 C494.895,100.909 494.895,99.342 494.895,98.306 L498.461,98.306 Z M499.535,101.565 L500.598,101.565 L500.598,97.284 C500.598,96.157 501.458,95.678 501.988,95.678 C502.329,95.678 502.454,95.715 502.557,95.727 L502.557,94.692 C502.454,94.639 502.303,94.616 502.088,94.616 C501.33,94.616 500.924,95.158 500.624,95.803 L500.598,95.803 L500.598,94.792 L499.535,94.792 L499.535,101.565 Z M503.273,101.565 L504.337,101.565 L504.337,96.891 C504.337,95.905 505.108,95.526 505.676,95.526 C506.636,95.526 506.675,96.374 506.675,96.891 L506.675,101.565 L507.734,101.565 L507.734,96.766 C507.734,95.968 507.734,94.616 505.953,94.616 C505.297,94.616 504.591,94.969 504.31,95.588 L504.284,95.588 L504.284,94.792 L503.273,94.792 L503.273,101.565 Z M509.065,101.565 L510.125,101.565 L510.125,96.891 C510.125,95.827 510.896,95.526 511.391,95.526 C512.262,95.526 512.301,96.374 512.301,96.891 L512.301,101.565 L513.362,101.565 L513.362,96.891 C513.362,95.827 514.132,95.526 514.626,95.526 C515.5,95.526 515.536,96.374 515.536,96.891 L515.536,101.565 L516.598,101.565 L516.598,96.766 C516.598,95.968 516.598,94.616 514.814,94.616 C514.121,94.616 513.515,95.094 513.211,95.691 C512.996,94.92 512.528,94.616 511.744,94.616 C511.087,94.616 510.379,94.969 510.101,95.588 L510.075,95.588 L510.075,94.792 L509.065,94.792 L509.065,101.565 Z M518.884,97.472 L518.884,97.218 C518.884,96.816 519.012,95.451 520.124,95.451 C521.057,95.451 521.298,96.347 521.298,97.106 L521.298,97.472 L518.884,97.472 Z M522.409,98.306 L522.409,97.878 C522.409,96.424 522.222,94.616 520.147,94.616 C518.062,94.616 517.733,96.575 517.733,98.27 C517.733,100.592 518.429,101.743 520.085,101.743 C521.931,101.743 522.36,100.061 522.36,99.342 L521.298,99.342 C521.298,99.849 521.159,100.909 520.147,100.909 C518.848,100.909 518.848,99.342 518.848,98.306 L522.409,98.306 Z M523.484,101.565 L524.547,101.565 L524.547,96.891 C524.547,95.905 525.318,95.526 525.886,95.526 C526.848,95.526 526.885,96.374 526.885,96.891 L526.885,101.565 L527.946,101.565 L527.946,96.766 C527.946,95.968 527.946,94.616 526.165,94.616 C525.506,94.616 524.8,94.969 524.52,95.588 L524.497,95.588 L524.497,94.792 L523.484,94.792 L523.484,101.565 Z M529.649,94.792 L528.666,94.792 L528.666,95.626 L529.649,95.626 L529.649,100.302 C529.649,101.189 529.916,101.641 531.016,101.641 C531.457,101.641 531.736,101.591 531.875,101.565 L531.875,100.694 C531.76,100.708 531.635,100.731 531.407,100.731 C530.852,100.731 530.711,100.519 530.711,99.975 L530.711,95.626 L531.888,95.626 L531.888,94.792 L530.711,94.792 L530.711,92.822 L529.649,92.822 L529.649,94.792 Z M535.676,101.565 L536.789,101.565 L536.789,92.545 L535.676,92.545 L535.676,101.565 Z M538.215,101.565 L539.276,101.565 L539.276,96.891 C539.276,95.905 540.048,95.526 540.616,95.526 C541.576,95.526 541.615,96.374 541.615,96.891 L541.615,101.565 L542.677,101.565 L542.677,96.766 C542.677,95.968 542.677,94.616 540.895,94.616 C540.236,94.616 539.53,94.969 539.251,95.588 L539.224,95.588 L539.224,94.792 L538.215,94.792 L538.215,101.565 Z M543.984,101.565 L545.044,101.565 L545.044,94.792 L543.984,94.792 L543.984,101.565 Z M543.984,93.756 L545.044,93.756 L545.044,92.542 L543.984,92.542 L543.984,93.756 Z M546.811,94.792 L545.826,94.792 L545.826,95.626 L546.811,95.626 L546.811,100.302 C546.811,101.189 547.079,101.641 548.177,101.641 C548.619,101.641 548.896,101.591 549.038,101.565 L549.038,100.694 C548.923,100.708 548.797,100.731 548.569,100.731 C548.013,100.731 547.874,100.519 547.874,99.975 L547.874,95.626 L549.048,95.626 L549.048,94.792 L547.874,94.792 L547.874,92.822 L546.811,92.822 L546.811,94.792 Z M549.833,101.565 L550.891,101.565 L550.891,94.792 L549.833,94.792 L549.833,101.565 Z M549.833,93.756 L550.891,93.756 L550.891,92.542 L549.833,92.542 L549.833,93.756 Z M553.146,96.84 L553.146,96.776 C553.146,96.539 553.146,95.451 554.307,95.451 C555.016,95.451 555.395,95.814 555.395,96.447 C555.395,97.017 555.395,97.234 554.624,97.472 L553.199,97.904 C552.325,98.168 551.92,98.824 551.92,99.771 C551.92,100.987 552.503,101.743 553.766,101.743 C554.396,101.743 555.054,101.377 555.395,100.77 L555.422,100.77 C555.472,101.641 555.976,101.641 556.382,101.641 C556.646,101.641 556.923,101.591 557.002,101.579 L557.002,100.823 C556.952,100.859 556.887,100.885 556.748,100.885 C556.419,100.885 556.419,100.619 556.419,100.341 L556.419,96.562 C556.419,95.856 556.419,94.616 554.357,94.616 C552.744,94.616 552.085,95.297 552.085,96.84 L553.146,96.84 Z M555.359,99.62 C555.359,100.318 554.687,100.909 553.994,100.909 C553.272,100.909 553.034,100.427 553.034,99.745 C553.034,99.154 553.209,98.889 553.552,98.672 C554.03,98.382 554.964,98.294 555.359,97.878 L555.359,99.62 Z M558.174,94.792 L557.187,94.792 L557.187,95.626 L558.174,95.626 L558.174,100.302 C558.174,101.189 558.437,101.641 559.539,101.641 C559.98,101.641 560.258,101.591 560.396,101.565 L560.396,100.694 C560.284,100.708 560.158,100.731 559.931,100.731 C559.374,100.731 559.235,100.519 559.235,99.975 L559.235,95.626 L560.412,95.626 L560.412,94.792 L559.235,94.792 L559.235,92.822 L558.174,92.822 L558.174,94.792 Z M561.191,101.565 L562.254,101.565 L562.254,94.792 L561.191,94.792 L561.191,101.565 Z M561.191,93.756 L562.254,93.756 L562.254,92.542 L561.191,92.542 L561.191,93.756 Z M564.971,101.565 L566.182,101.565 L568.016,94.792 L566.851,94.792 L565.588,100.226 L565.564,100.226 L564.302,94.792 L563.138,94.792 L564.971,101.565 Z M569.579,97.472 L569.579,97.218 C569.579,96.816 569.705,95.451 570.819,95.451 C571.753,95.451 571.993,96.347 571.993,97.106 L571.993,97.472 L569.579,97.472 Z M573.107,98.306 L573.107,97.878 C573.107,96.424 572.917,94.616 570.843,94.616 C568.758,94.616 568.432,96.575 568.432,98.27 C568.432,100.592 569.124,101.743 570.78,101.743 C572.624,101.743 573.056,100.061 573.056,99.342 L571.993,99.342 C571.993,99.849 571.854,100.909 570.843,100.909 C569.543,100.909 569.543,99.342 569.543,98.306 L573.107,98.306 L573.107,98.306 Z" id="Fill-25" fill="#1D3756"></path>
                <polygon id="Fill-26" fill="#1D3756" points="410.946 84.915 573.107 84.915 573.107 84.359 410.946 84.359"></polygon>
                <polyline id="Fill-27" fill="#1D3756" points="427.841 62.769 429.025 62.769 436.084 71.749 436.084 62.769 437.316 62.769 437.316 73.973 436.308 73.973 429.073 64.786 429.073 73.973 427.841 73.973 427.841 62.769"></polyline>
                <path d="M449.461,68.403 L449.461,68.371 C449.461,65.826 447.603,63.745 445.043,63.745 C442.481,63.745 440.657,65.794 440.657,68.338 L440.657,68.371 C440.657,70.916 442.514,72.997 445.075,72.997 C447.636,72.997 449.461,70.948 449.461,68.403 Z M439.345,68.403 L439.345,68.371 C439.345,65.282 441.665,62.577 445.075,62.577 C448.484,62.577 450.773,65.25 450.773,68.338 L450.773,68.371 C450.773,71.461 448.452,74.166 445.043,74.166 C441.634,74.166 439.345,71.492 439.345,68.403 L439.345,68.403 Z" id="Fill-28" fill="#1D3756"></path>
                <path d="M457.507,68.483 C459.187,68.483 460.388,67.619 460.388,66.178 L460.388,66.146 C460.388,64.769 459.331,63.937 457.522,63.937 L454.065,63.937 L454.065,68.483 L457.507,68.483 Z M452.801,62.769 L457.618,62.769 C458.995,62.769 460.099,63.185 460.804,63.889 C461.349,64.433 461.668,65.217 461.668,66.098 L461.668,66.131 C461.668,67.987 460.388,69.075 458.627,69.395 L462.068,73.973 L460.516,73.973 L457.266,69.62 L454.065,69.62 L454.065,73.973 L452.801,73.973 L452.801,62.769 L452.801,62.769 Z" id="Fill-29" fill="#1D3756"></path>
                <polyline id="Fill-30" fill="#1D3756" points="466.577 63.937 462.815 63.937 462.815 62.769 471.619 62.769 471.619 63.937 467.857 63.937 467.857 73.973 466.577 73.973 466.577 63.937"></polyline>
                <polyline id="Fill-31" fill="#1D3756" points="473.664 62.769 474.929 62.769 474.929 67.747 481.395 67.747 481.395 62.769 482.66 62.769 482.66 73.973 481.395 73.973 481.395 68.931 474.929 68.931 474.929 73.973 473.664 73.973 473.664 62.769"></polyline>
                <path d="M490.128,68.403 L490.128,68.371 C490.128,65.202 492.497,62.577 495.794,62.577 C497.827,62.577 499.043,63.297 500.164,64.353 L499.3,65.282 C498.355,64.385 497.299,63.745 495.778,63.745 C493.297,63.745 491.44,65.762 491.44,68.338 L491.44,68.371 C491.44,70.965 493.313,72.997 495.778,72.997 C497.314,72.997 498.323,72.405 499.395,71.381 L500.227,72.197 C499.059,73.382 497.779,74.166 495.746,74.166 C492.513,74.166 490.128,71.621 490.128,68.403" id="Fill-32" fill="#1D3756"></path>
                <path d="M511.412,68.403 L511.412,68.371 C511.412,65.826 509.555,63.745 506.994,63.745 C504.432,63.745 502.608,65.794 502.608,68.338 L502.608,68.371 C502.608,70.916 504.465,72.997 507.026,72.997 C509.587,72.997 511.412,70.948 511.412,68.403 Z M501.296,68.403 L501.296,68.371 C501.296,65.282 503.616,62.577 507.026,62.577 C510.435,62.577 512.724,65.25 512.724,68.338 L512.724,68.371 C512.724,71.461 510.403,74.166 506.994,74.166 C503.585,74.166 501.296,71.492 501.296,68.403 L501.296,68.403 Z" id="Fill-33" fill="#1D3756"></path>
                <path d="M521.043,69.876 L518.498,64.162 L515.936,69.876 L521.043,69.876 Z M517.922,62.689 L519.105,62.689 L524.212,73.973 L522.851,73.973 L521.539,71.012 L515.44,71.012 L514.112,73.973 L512.815,73.973 L517.922,62.689 L517.922,62.689 Z" id="Fill-34" fill="#1D3756"></path>
                <path d="M525.135,72.34 L525.92,71.413 C527.088,72.468 528.208,72.997 529.761,72.997 C531.266,72.997 532.258,72.197 532.258,71.092 L532.258,71.06 C532.258,70.02 531.698,69.427 529.345,68.931 C526.767,68.371 525.583,67.539 525.583,65.698 L525.583,65.666 C525.583,63.905 527.136,62.609 529.265,62.609 C530.897,62.609 532.066,63.073 533.202,63.985 L532.466,64.962 C531.426,64.113 530.386,63.745 529.232,63.745 C527.776,63.745 526.848,64.546 526.848,65.554 L526.848,65.586 C526.848,66.642 527.424,67.235 529.889,67.762 C532.386,68.307 533.539,69.219 533.539,70.932 L533.539,70.965 C533.539,72.884 531.937,74.134 529.713,74.134 C527.936,74.134 526.479,73.541 525.135,72.34" id="Fill-35" fill="#1D3756"></path>
                <polyline id="Fill-36" fill="#1D3756" points="538.513 63.937 534.751 63.937 534.751 62.769 543.555 62.769 543.555 63.937 539.793 63.937 539.793 73.973 538.513 73.973 538.513 63.937"></polyline>
            </g>
        </g>
    </g>
</svg>